<svg xmlns="http://www.w3.org/2000/svg" viewBox="0 0 48 48" width="48" height="48" role="img" aria-label="Логотип">
  <!-- Minimalist cooking pot with steam -->
  <g fill="none" stroke="#8a3b1e" stroke-width="2.4" stroke-linecap="round" stroke-linejoin="round">
    <!-- steam -->
    <path d="M19 9c-1.6 1.6-1.6 3.4 0 5s1.6 3.4 0 5"/>
    <path d="M29 9c-1.6 1.6-1.6 3.4 0 5s1.6 3.4 0 5"/>
    <!-- pot body -->
    <path d="M9 24h30l-2.2 12.6a4 4 0 0 1-3.9 3.4H15.1a4 4 0 0 1-3.9-3.4L9 24Z" fill="#f6e7df"/>
    <!-- lid line / handles -->
    <path d="M6 24h36"/>
    <path d="M6 24c0-1.2 1-2.2 2.2-2.2M42 24c0-1.2-1-2.2-2.2-2.2"/>
  </g>
</svg>
